<svg width="40" height="34" viewBox="0 0 40 34" fill="none" xmlns="http://www.w3.org/2000/svg">
<path d="M37.4237 29.1339V8.21985H28.2034V22.4307C28.2195 25.41 28.7027 26.8827 30.3729 29.1339C31.0319 29.947 31.4722 30.3612 32.4068 31.0108C34.1603 32.1557 35.2629 32.5651 37.4237 32.8877C38.3133 33.0446 38.8813 33.0694 40 33.0218C38.9354 32.4792 38.5024 32.043 37.9661 31.0108C37.6189 30.3264 37.5019 29.9144 37.4237 29.1339Z" fill="#FEFDF8"/>
<path d="M2.45782 29.1339V8.21985H11.2542V22.4307C11.2389 25.41 10.7779 26.8827 9.18449 29.1339C8.55575 29.947 8.13574 30.3612 7.24411 31.0108C5.5712 32.1557 4.51928 32.5651 2.45782 32.8877C1.60918 33.0446 1.06731 33.0694 0 33.0218C1.01561 32.4792 1.42879 32.043 1.94039 31.0108C2.27167 30.3264 2.38324 29.9144 2.45782 29.1339Z" fill="#FEFDF8"/>
<path d="M24.1356 5.67476V33.0239H15.322C15.322 33.0239 12.5681 33.0419 12.5424 33.0239C12.5166 33.0059 13.7627 33.0312 15.322 29.4042V5.67476H24.1356Z" fill="#FEFDF8"/>
<path d="M15.322 5.67476V33.0159H24.0838C24.0838 33.0159 26.8215 33.0339 26.8471 33.0159C26.8726 32.9979 25.6339 33.0232 24.0838 29.3973V5.67476H15.322Z" fill="#FEFDF8"/>
<path d="M2.44067 0.178109H19.4223C22.5414 0.178109 24.0735 2.69404 24.1356 5.67783H15.322V7.72945C15.3292 7.86265 15.3292 8.00429 15.322 8.15495V7.72945C15.2412 6.23498 14.5845 5.86184 12.4068 5.67783C2.44067 5.51821 2.44067 6.0099 2.44067 2.52424C2.44068 -0.961428 2.44067 0.178109 2.44067 0.178109Z" fill="#FEFDF8"/>
<path d="M37.5593 5.80669H28.3389V5.07302C28.3016 1.75892 27.6893 0.679405 24.6101 0.178109H28.3389C34.9152 0.178106 37.5593 1.24849 37.5593 5.80669Z" fill="#FEFDF8"/>
</svg>
