<svg width="20" height="20" viewBox="0 0 20 20" fill="none" xmlns="http://www.w3.org/2000/svg">
<g clip-path="url(#clip0_466_27)">
<path d="M10 20C15.5228 20 20 15.5228 20 10C20 4.47715 15.5228 0 10 0C4.47715 0 0 4.47715 0 10C0 15.5228 4.47715 20 10 20Z" fill="#5B6BFA"/>
<g opacity="0.2">
<path d="M10 3.75C6.21875 3.75 3.125 6.84375 3.125 10.625C3.125 14.4062 6.21875 17.5 10 17.5C11.0938 17.5 12.1875 17.25 13.1562 16.75C13.4688 16.5938 13.5938 16.2188 13.4375 15.9062C13.2812 15.5938 12.9062 15.4688 12.5938 15.625C11.7812 16.0312 10.9375 16.25 10.0312 16.25C6.9375 16.25 4.40625 13.7188 4.40625 10.625C4.40625 7.53125 6.9375 5 10.0312 5C13.125 5 15.6562 7.53125 15.6562 10.625C15.6562 11.5625 15.4062 12.5 14.9688 13.3125C14.4063 12.875 13.5938 12 13.5938 10.6562V7.90625C13.5938 7.5625 13.3125 7.28125 12.9688 7.28125C12.625 7.28125 12.3438 7.5625 12.3438 7.90625V7.9375C11.7188 7.40625 10.9062 7.0625 10.0312 7.0625C8.0625 7.0625 6.46875 8.65625 6.46875 10.625C6.46875 12.5938 8.03125 14.1875 10 14.1875C11.1562 14.1875 12.1875 13.625 12.8438 12.75C13.5625 14.0625 14.7812 14.7188 14.8438 14.75C15.125 14.9062 15.4687 14.8125 15.6562 14.5625C16.4687 13.4062 16.875 12.0625 16.875 10.625C16.875 6.84375 13.7812 3.75 10 3.75ZM10 12.9375C8.71875 12.9375 7.6875 11.9062 7.6875 10.625C7.6875 9.34375 8.71875 8.3125 10 8.3125C11.2812 8.3125 12.3125 9.34375 12.3125 10.625C12.3125 11.9062 11.2812 12.9375 10 12.9375Z" fill="#5B6BFA"/>
</g>
<path d="M10 16.875C6.21875 16.875 3.125 13.7812 3.125 10C3.125 6.21875 6.21875 3.125 10 3.125C13.7812 3.125 16.875 6.21875 16.875 10C16.875 11.4062 16.4375 12.7812 15.6562 13.9375C15.4687 14.1875 15.125 14.2812 14.8438 14.125C14.75 14.0625 12.3125 12.8125 12.3125 10.0312V7.28125C12.3125 6.9375 12.5938 6.65625 12.9375 6.65625C13.2813 6.65625 13.5625 6.9375 13.5625 7.28125V10.0312C13.5625 11.375 14.375 12.25 14.9375 12.6875C15.375 11.875 15.625 10.9375 15.625 10C15.625 6.90625 13.0938 4.375 10 4.375C6.90625 4.375 4.375 6.90625 4.375 10C4.375 13.0938 6.90625 15.625 10 15.625C10.9062 15.625 11.7812 15.4062 12.5625 15C12.875 14.8438 13.25 14.9688 13.4062 15.2812C13.5625 15.5938 13.4375 15.9688 13.125 16.125C12.1875 16.625 11.0938 16.875 10 16.875Z" fill="black"/>
<path d="M10 7.6875C11.2812 7.6875 12.3125 8.71875 12.3125 10C12.3125 11.2812 11.2812 12.3125 10 12.3125C8.71875 12.3125 7.6875 11.2812 7.6875 10C7.6875 8.71875 8.71875 7.6875 10 7.6875ZM10 6.4375C8.03125 6.4375 6.4375 8.03125 6.4375 10C6.4375 11.9688 8.03125 13.5625 10 13.5625C11.9688 13.5625 13.5625 11.9688 13.5625 10C13.5625 8.03125 11.9688 6.4375 10 6.4375Z" fill="black"/>
</g>
<defs>
<clipPath id="clip0_466_27">
<rect width="20" height="20" fill="white"/>
</clipPath>
</defs>
</svg>
