<svg width="187" height="40" viewBox="0 0 187 40" fill="none" xmlns="http://www.w3.org/2000/svg">
<rect width="40" height="40" rx="10" fill="#5B6BFA"/>
<path d="M33.1824 29.5421V13.719H26.2065V24.4706C26.2187 26.7246 26.5842 27.8389 27.8479 29.5421C28.3465 30.1573 28.6796 30.4706 29.3867 30.9621C30.7134 31.8283 31.5476 32.1381 33.1824 32.3822C33.8554 32.5008 34.2851 32.5196 35.1316 32.4836C34.3261 32.0731 33.9985 31.743 33.5928 30.9621C33.33 30.4443 33.2416 30.1326 33.1824 29.5421Z" fill="#0E0F52"/>
<path d="M6.72794 29.5421V13.719H13.3831V24.4706C13.3715 26.7246 13.0227 27.8389 11.8172 29.5421C11.3415 30.1573 11.0237 30.4706 10.3491 30.9621C9.08346 31.8283 8.2876 32.1381 6.72794 32.3822C6.08588 32.5008 5.67591 32.5196 4.86841 32.4836C5.6368 32.0731 5.9494 31.743 6.33646 30.9621C6.5871 30.4443 6.67152 30.1326 6.72794 29.5421Z" fill="#0E0F52"/>
<path d="M23.1289 11.7934V32.4852H16.4607C16.4607 32.4852 14.3772 32.4988 14.3577 32.4852C14.3382 32.4716 15.281 32.4907 16.4607 29.7466V11.7934H23.1289Z" fill="#0E0F52"/>
<path d="M16.4607 11.7934V32.4792H23.0897C23.0897 32.4792 25.161 32.4928 25.1803 32.4792C25.1997 32.4655 24.2625 32.4847 23.0897 29.7413V11.7934H16.4607Z" fill="#0E0F52"/>
<path d="M6.71497 7.63475H19.5629C21.9227 7.63475 23.0819 9.53825 23.1289 11.7957H16.4607V13.3479C16.4662 13.4487 16.4661 13.5559 16.4607 13.6699V13.3479C16.3996 12.2173 15.9027 11.9349 14.2551 11.7957C6.71497 11.675 6.71497 12.047 6.71497 9.40979C6.71497 6.7726 6.71497 7.63475 6.71497 7.63475Z" fill="#0E0F52"/>
<path d="M33.285 11.8932H26.309V11.3381C26.2808 8.83076 25.8176 8.01402 23.4879 7.63475H26.309C31.2845 7.63475 33.285 8.44458 33.285 11.8932Z" fill="#0E0F52"/>
<path d="M76.896 31V16.088L71.072 27.192H68.608L62.784 16.088V31H58.368V8.28H63.104L69.824 21.208L76.608 8.28H81.312V31H76.896ZM84.8395 24.728V14.232H89.1275V23.8C89.1275 25.08 89.3622 26.0507 89.8315 26.712C90.3008 27.352 90.9942 27.672 91.9115 27.672C92.4662 27.672 93.0102 27.5653 93.5435 27.352C94.0982 27.1173 94.5995 26.776 95.0475 26.328C95.5168 25.88 95.9115 25.3147 96.2315 24.632V14.232H100.52V26.2C100.52 26.648 100.594 26.968 100.744 27.16C100.914 27.352 101.181 27.4693 101.544 27.512V31C101.117 31.064 100.754 31.1067 100.456 31.128C100.178 31.1707 99.9222 31.192 99.6875 31.192C98.9195 31.192 98.2902 31.0213 97.7995 30.68C97.3302 30.3173 97.0528 29.8267 96.9675 29.208L96.8715 27.864C96.1248 28.9947 95.1648 29.8587 93.9915 30.456C92.8182 31.032 91.5275 31.32 90.1195 31.32C88.3915 31.32 87.0795 30.7653 86.1835 29.656C85.2875 28.5253 84.8395 26.8827 84.8395 24.728ZM110.317 31.32C108.887 31.32 107.522 31.0853 106.221 30.616C104.919 30.1467 103.799 29.4533 102.861 28.536L104.397 25.752C105.399 26.5627 106.381 27.16 107.341 27.544C108.322 27.928 109.261 28.12 110.157 28.12C110.989 28.12 111.65 27.9707 112.141 27.672C112.653 27.3733 112.909 26.9253 112.909 26.328C112.909 25.9227 112.77 25.6133 112.493 25.4C112.215 25.1653 111.81 24.9627 111.277 24.792C110.765 24.6213 110.135 24.4293 109.389 24.216C108.151 23.8107 107.117 23.416 106.285 23.032C105.453 22.648 104.823 22.168 104.397 21.592C103.991 20.9947 103.789 20.2373 103.789 19.32C103.789 18.2107 104.066 17.2613 104.621 16.472C105.197 15.6613 105.986 15.032 106.989 14.584C108.013 14.136 109.207 13.912 110.573 13.912C111.767 13.912 112.898 14.104 113.965 14.488C115.031 14.8507 116.002 15.448 116.877 16.28L115.149 19C114.295 18.3387 113.485 17.8587 112.717 17.56C111.949 17.24 111.17 17.08 110.381 17.08C109.933 17.08 109.506 17.1333 109.101 17.24C108.717 17.3467 108.397 17.528 108.141 17.784C107.906 18.0187 107.789 18.36 107.789 18.808C107.789 19.2133 107.895 19.5333 108.109 19.768C108.343 19.9813 108.685 20.1733 109.133 20.344C109.602 20.5147 110.167 20.7067 110.829 20.92C112.173 21.304 113.303 21.6987 114.221 22.104C115.159 22.5093 115.863 23.0107 116.333 23.608C116.802 24.184 117.037 24.984 117.037 26.008C117.037 27.672 116.429 28.9733 115.213 29.912C113.997 30.8507 112.365 31.32 110.317 31.32ZM125.489 31.32C124.06 31.32 122.695 31.0853 121.393 30.616C120.092 30.1467 118.972 29.4533 118.033 28.536L119.569 25.752C120.572 26.5627 121.553 27.16 122.513 27.544C123.495 27.928 124.433 28.12 125.329 28.12C126.161 28.12 126.823 27.9707 127.313 27.672C127.825 27.3733 128.081 26.9253 128.081 26.328C128.081 25.9227 127.943 25.6133 127.665 25.4C127.388 25.1653 126.983 24.9627 126.449 24.792C125.937 24.6213 125.308 24.4293 124.561 24.216C123.324 23.8107 122.289 23.416 121.457 23.032C120.625 22.648 119.996 22.168 119.569 21.592C119.164 20.9947 118.961 20.2373 118.961 19.32C118.961 18.2107 119.239 17.2613 119.793 16.472C120.369 15.6613 121.159 15.032 122.161 14.584C123.185 14.136 124.38 13.912 125.745 13.912C126.94 13.912 128.071 14.104 129.137 14.488C130.204 14.8507 131.175 15.448 132.049 16.28L130.321 19C129.468 18.3387 128.657 17.8587 127.889 17.56C127.121 17.24 126.343 17.08 125.553 17.08C125.105 17.08 124.679 17.1333 124.273 17.24C123.889 17.3467 123.569 17.528 123.313 17.784C123.079 18.0187 122.961 18.36 122.961 18.808C122.961 19.2133 123.068 19.5333 123.281 19.768C123.516 19.9813 123.857 20.1733 124.305 20.344C124.775 20.5147 125.34 20.7067 126.001 20.92C127.345 21.304 128.476 21.6987 129.393 22.104C130.332 22.5093 131.036 23.0107 131.505 23.608C131.975 24.184 132.209 24.984 132.209 26.008C132.209 27.672 131.601 28.9733 130.385 29.912C129.169 30.8507 127.537 31.32 125.489 31.32ZM144.44 30.136C144.077 30.2853 143.64 30.456 143.128 30.648C142.616 30.84 142.061 30.9893 141.464 31.096C140.888 31.224 140.301 31.288 139.704 31.288C138.915 31.288 138.189 31.1493 137.528 30.872C136.867 30.5947 136.333 30.1573 135.928 29.56C135.544 28.9413 135.352 28.1413 135.352 27.16V17.528H133.144V14.232H135.352V8.792H139.64V14.232H143.16V17.528H139.64V25.72C139.661 26.296 139.821 26.712 140.12 26.968C140.419 27.224 140.792 27.352 141.24 27.352C141.688 27.352 142.125 27.2773 142.552 27.128C142.979 26.9787 143.32 26.8507 143.576 26.744L144.44 30.136ZM146.033 31V14.232H150.321V31H146.033ZM146.033 11.896V7.64H150.321V11.896H146.033ZM169.134 31H164.846V21.592C164.846 20.248 164.611 19.2667 164.142 18.648C163.672 18.0293 163.022 17.72 162.19 17.72C161.614 17.72 161.027 17.8693 160.43 18.168C159.854 18.4667 159.331 18.8827 158.862 19.416C158.392 19.928 158.051 20.5253 157.838 21.208V31H153.55V14.232H157.422V17.336C157.848 16.6107 158.392 16.0027 159.054 15.512C159.715 15 160.472 14.616 161.326 14.36C162.2 14.0827 163.118 13.944 164.078 13.944C165.123 13.944 165.976 14.136 166.638 14.52C167.32 14.8827 167.832 15.384 168.174 16.024C168.536 16.6427 168.782 17.3467 168.91 18.136C169.059 18.9253 169.134 19.7253 169.134 20.536V31ZM178.398 31.32C176.969 31.32 175.603 31.0853 174.302 30.616C173.001 30.1467 171.881 29.4533 170.942 28.536L172.478 25.752C173.481 26.5627 174.462 27.16 175.422 27.544C176.403 27.928 177.342 28.12 178.238 28.12C179.07 28.12 179.731 27.9707 180.222 27.672C180.734 27.3733 180.99 26.9253 180.99 26.328C180.99 25.9227 180.851 25.6133 180.574 25.4C180.297 25.1653 179.891 24.9627 179.358 24.792C178.846 24.6213 178.217 24.4293 177.47 24.216C176.233 23.8107 175.198 23.416 174.366 23.032C173.534 22.648 172.905 22.168 172.478 21.592C172.073 20.9947 171.87 20.2373 171.87 19.32C171.87 18.2107 172.147 17.2613 172.702 16.472C173.278 15.6613 174.067 15.032 175.07 14.584C176.094 14.136 177.289 13.912 178.654 13.912C179.849 13.912 180.979 14.104 182.046 14.488C183.113 14.8507 184.083 15.448 184.958 16.28L183.23 19C182.377 18.3387 181.566 17.8587 180.798 17.56C180.03 17.24 179.251 17.08 178.462 17.08C178.014 17.08 177.587 17.1333 177.182 17.24C176.798 17.3467 176.478 17.528 176.222 17.784C175.987 18.0187 175.87 18.36 175.87 18.808C175.87 19.2133 175.977 19.5333 176.19 19.768C176.425 19.9813 176.766 20.1733 177.214 20.344C177.683 20.5147 178.249 20.7067 178.91 20.92C180.254 21.304 181.385 21.6987 182.302 22.104C183.241 22.5093 183.945 23.0107 184.414 23.608C184.883 24.184 185.118 24.984 185.118 26.008C185.118 27.672 184.51 28.9733 183.294 29.912C182.078 30.8507 180.446 31.32 178.398 31.32Z" fill="#FEFDF8"/>
</svg>
