<svg width="50" height="50" viewBox="0 0 50 50" fill="none" xmlns="http://www.w3.org/2000/svg">
<rect width="50" height="50" rx="10" fill="#5B6BFA"/>
<path d="M41.478 36.9276V17.1487H32.7581V30.5882C32.7734 33.4058 33.2303 34.7986 34.8099 36.9276C35.4331 37.6966 35.8495 38.0883 36.7334 38.7027C38.3917 39.7854 39.4345 40.1726 41.478 40.4777C42.3193 40.626 42.8564 40.6495 43.9145 40.6045C42.9077 40.0913 42.4981 39.6788 41.991 38.7027C41.6626 38.0554 41.552 37.6658 41.478 36.9276Z" fill="#0E0F52"/>
<path d="M8.40995 36.9276V17.1487H16.7289V30.5882C16.7144 33.4058 16.2784 34.7986 14.7715 36.9276C14.1769 37.6966 13.7797 38.0883 12.9364 38.7027C11.3543 39.7854 10.3595 40.1726 8.40995 40.4777C7.60737 40.626 7.09491 40.6495 6.08553 40.6045C7.04601 40.0913 7.43677 39.6788 7.92059 38.7027C8.23389 38.0554 8.33942 37.6658 8.40995 36.9276Z" fill="#0E0F52"/>
<path d="M28.9111 14.7418V40.6065H20.5759C20.5759 40.6065 17.9715 40.6235 17.9471 40.6065C17.9228 40.5895 19.1012 40.6134 20.5759 37.1832V14.7418H28.9111Z" fill="#0E0F52"/>
<path d="M20.5759 14.7418V40.599H28.8621C28.8621 40.599 31.4512 40.616 31.4754 40.599C31.4996 40.5819 30.3281 40.6058 28.8621 37.1767V14.7418H20.5759Z" fill="#0E0F52"/>
<path d="M8.39373 9.54344H24.4537C27.4035 9.54344 28.8524 11.9228 28.9111 14.7447H20.5759V16.6849C20.5827 16.8109 20.5827 16.9448 20.5759 17.0873V16.6849C20.4995 15.2716 19.8784 14.9187 17.8189 14.7447C8.39373 14.5937 8.39373 15.0587 8.39373 11.7622C8.39373 8.46575 8.39373 9.54344 8.39373 9.54344Z" fill="#0E0F52"/>
<path d="M41.6062 14.8665H32.8863V14.1727C32.851 11.0384 32.272 10.0175 29.3599 9.54344H32.8863C39.1057 9.54344 41.6062 10.5557 41.6062 14.8665Z" fill="#0E0F52"/>
</svg>
