<svg width="50" height="50" viewBox="0 0 50 50" fill="none" xmlns="http://www.w3.org/2000/svg">
<path fill-rule="evenodd" clip-rule="evenodd" d="M43.1173 46.0323C40.7847 46.0172 38.528 45.2381 36.711 43.8224C36.4141 43.5742 36.2534 43.203 36.2824 42.8232C36.5347 39.1932 39.1396 36.4697 43.1396 36.4697C47.1396 36.4697 49.7179 39.1932 49.9968 42.8232C50.0258 43.2116 49.8584 43.5914 49.5459 43.8396C47.7333 45.2553 45.4767 46.0344 43.1464 46.0495L43.1173 46.0323ZM27.0035 20.4913C29.1018 20.9165 31.0058 21.9804 32.4321 23.5299C31.6866 23.9702 30.9008 24.3392 30.0839 24.6349C29.4053 23.0444 28.3517 21.6308 27.0035 20.5086V20.4913ZM33.1127 24.3586H33.1105C32.2689 24.8529 31.3828 25.2715 30.4609 25.6082C30.8738 26.8383 31.1082 28.1159 31.1574 29.4086H34.9409C34.8404 27.5871 34.2042 25.8304 33.1105 24.3414L33.1127 24.3586ZM34.9408 30.4685V30.4706C34.8404 32.2921 34.2042 34.0488 33.1105 35.5357C32.2689 35.0415 31.3828 34.6229 30.4609 34.2862C30.8739 33.0517 31.1105 31.7677 31.1574 30.4707L34.9408 30.4685ZM32.4319 36.3534C31.6841 35.9175 30.8984 35.5463 30.0836 35.2485C29.4051 36.839 28.3515 38.2526 27.0033 39.3748C29.1015 38.9518 31.0055 37.8857 32.4319 36.3362V36.3534ZM25.5456 39.159V34.3809C26.7443 34.4198 27.9317 34.6054 29.0835 34.9334C28.3402 36.6361 27.1148 38.1037 25.5456 39.159ZM29.4719 33.9558C29.8492 32.8249 30.059 31.6509 30.0992 30.4639H25.5456V33.3364C26.8759 33.3774 28.1951 33.5867 29.4719 33.9558ZM30.0724 29.4086C30.0322 28.2238 29.8202 27.0498 29.4429 25.9233C28.175 26.288 26.867 26.4973 25.5456 26.5469V29.4086H30.0724ZM29.0546 24.9392C28.3179 23.2429 27.1014 21.7819 25.5456 20.7244V25.5024C26.7443 25.4614 27.9318 25.2758 29.0836 24.95L29.0546 24.9392ZM24.4318 20.7136C22.8626 21.769 21.6371 23.2343 20.8938 24.9392C22.0456 25.2651 23.2332 25.4507 24.4318 25.4917V20.7136ZM20.5054 25.9233C20.1282 27.0499 19.9162 28.2239 19.8759 29.4087H24.4474V26.5362C23.1193 26.4931 21.8001 26.288 20.5233 25.9233H20.5054ZM19.8759 30.4532C19.9161 31.6401 20.1282 32.8141 20.5054 33.945C21.78 33.5759 23.1014 33.3666 24.4318 33.3256V30.4532H19.8759ZM20.8938 34.9334C21.6371 36.6361 22.8625 38.1037 24.4317 39.159V34.3809C23.233 34.4198 22.0433 34.6054 20.8938 34.9334ZM22.9451 39.3921C20.8469 38.9669 18.9428 37.903 17.5165 36.3534C18.2643 35.9175 19.05 35.5463 19.8647 35.2485C20.5433 36.839 21.5969 38.2526 22.9451 39.3748V39.3921ZM16.8382 35.5247C17.6797 35.0305 18.5658 34.6119 19.4877 34.2752C19.0748 33.0407 18.8382 31.7567 18.7913 30.4575H15.0077C15.1082 32.2811 15.7444 34.0378 16.8382 35.5247ZM15.0078 29.4088C15.1082 27.5874 15.7444 25.8307 16.8382 24.3416C17.6797 24.8358 18.5658 25.2544 19.4877 25.5911C19.0748 26.8256 18.8404 28.1118 18.7912 29.4088H15.0078ZM17.5458 23.5299C18.9721 21.9804 20.8739 20.9164 22.9744 20.4913C21.6261 21.6135 20.5703 23.0271 19.894 24.6176C19.077 24.322 18.2913 23.953 17.5458 23.5127V23.5299ZM6.83142 29.9049C8.05908 29.9049 9.164 30.6215 9.63498 31.7177C10.1037 32.8141 9.8448 34.0744 8.97652 34.9139C8.10823 35.7534 6.80462 36.0038 5.67067 35.5505C4.53673 35.0952 3.79792 34.0269 3.79792 32.84C3.79792 31.2192 5.15507 29.9049 6.83142 29.9049ZM6.83142 46.0323C4.50107 46.0172 2.24437 45.2381 0.431964 43.8224C0.132854 43.5742 -0.0256272 43.203 0.00339008 42.8232C0.255626 39.1932 2.86055 36.4697 6.86056 36.4697C10.8606 36.4697 13.4435 39.1932 13.7177 42.8232C13.7468 43.203 13.5883 43.5742 13.2892 43.8224C11.4744 45.2381 9.21549 46.0172 6.88285 46.0323H6.83142ZM43.1173 29.9049C44.345 29.9049 45.4499 30.6215 45.9209 31.7177C46.3896 32.8141 46.1307 34.0744 45.2624 34.9139C44.3941 35.7534 43.0905 36.0038 41.9566 35.5505C40.8226 35.0952 40.0838 34.0269 40.0838 32.84C40.0838 31.2192 41.441 29.9049 43.1173 29.9049ZM24.9744 0C26.202 0 27.3069 0.714351 27.7779 1.81063C28.2467 2.90696 27.9877 4.16942 27.1195 5.00896C26.2512 5.8463 24.9476 6.09883 23.8136 5.64343C22.6797 5.19023 21.9409 4.11981 21.9409 2.93287C21.9409 2.15598 22.2601 1.40925 22.8293 0.858934C23.3985 0.308618 24.1686 0 24.9744 0ZM24.9744 16.1489C22.644 16.1338 20.3873 15.3547 18.5749 13.939C18.2713 13.6951 18.1106 13.3239 18.1463 12.9441C18.3919 9.30982 21.0035 6.59059 25.0035 6.59059C29.0035 6.59059 31.5864 9.30982 31.8607 12.9441C31.8808 13.3347 31.7 13.708 31.3741 13.939C29.5616 15.3547 27.3046 16.1338 24.9744 16.1489ZM34.7224 13.475C34.5952 13.4059 34.5014 13.2915 34.4635 13.1556C34.4233 13.0196 34.4412 12.875 34.5126 12.752C34.6599 12.4952 34.9947 12.4024 35.2604 12.547C37.9256 14.0275 40.2202 16.0561 41.9815 18.4905C43.7315 20.9184 44.9034 23.6938 45.4101 26.6136C45.457 26.8963 45.2606 27.1639 44.9659 27.2114C44.6735 27.2588 44.3945 27.0668 44.3454 26.7841C43.8677 24.0174 42.7561 21.3888 41.0954 19.0881C39.428 16.7789 37.2516 14.8538 34.7228 13.4534L34.7224 13.475ZM34.7224 46.4683C34.9836 46.341 35.3028 46.4251 35.4613 46.6625C35.5327 46.7834 35.5506 46.9258 35.5126 47.0596C35.4724 47.1934 35.3809 47.3078 35.2537 47.3747C28.8988 50.8751 21.1062 50.8751 14.7513 47.3747C14.6263 47.3078 14.5326 47.1934 14.4946 47.0596C14.4567 46.9258 14.4745 46.7834 14.5459 46.6625C14.6955 46.4294 14.9991 46.3366 15.2602 46.4467C21.2871 49.7486 28.662 49.7486 34.6889 46.4467L34.7224 46.4683ZM5.60856 26.7841C6.08401 24.0153 7.19559 21.3867 8.8608 19.0881C10.5238 16.7768 12.7001 14.8518 15.2271 13.4534C15.3566 13.3865 15.4526 13.2722 15.495 13.1362C15.5352 12.9981 15.5173 12.8513 15.4459 12.7283C15.3722 12.6053 15.2517 12.5147 15.1088 12.4801C14.966 12.4456 14.8142 12.4672 14.6892 12.5406C12.024 14.021 9.73155 16.054 7.97485 18.4907C6.22039 20.9186 5.05072 23.6939 4.54626 26.6138C4.50162 26.8878 4.69136 27.149 4.97484 27.1986C5.26502 27.2375 5.53935 27.0582 5.60856 26.7841Z" fill="#5B6BFA"/>
</svg>
