<svg width="50" height="50" viewBox="0 0 50 50" fill="none" xmlns="http://www.w3.org/2000/svg">
<path fill-rule="evenodd" clip-rule="evenodd" d="M49.8921 15.0216C49.2544 20.5278 48.6168 26.0317 47.9792 31.5381C47.5676 34.9656 46.9567 35.8413 45.4556 37.8557C43.3502 40.684 39.3569 45.0384 38.9783 49.8343C38.0118 50.1727 31.8166 50.0643 29.2931 48.8304C29.1096 42.8977 29.4452 39.4304 32.1546 34.9169C34.3584 32.0267 36.278 29.4174 38.1685 26.37C38.7927 25.3638 40.2 24.2183 41.7057 25.3041C42.3075 25.7132 42.5179 26.4938 42.4708 27.1771C42.3254 29.3022 40.2492 32.4091 39.0679 34.1735C38.8688 34.4698 38.6965 34.7285 38.5309 34.9873C38.3274 35.3079 38.4258 35.7325 38.7524 35.9315C39.0769 36.1327 39.5064 36.0354 39.7078 35.7126C39.8241 35.529 40.0121 35.2482 40.2268 34.9276C41.4909 33.0369 43.6745 29.773 43.8267 27.1703C43.8826 26.2062 43.6097 25.2443 42.9542 24.561C43.6119 22.4403 44.4912 18.7166 45.0259 15.5629C45.9499 10.1252 48.5855 9.62337 49.9435 11.4321C50.0419 12.1486 50.0039 13.7053 49.8898 15.021L49.8921 15.0216ZM31.7657 26.193L28.0898 27.6989L27.6736 29.7886C27.6065 30.1292 27.3089 30.3702 26.9577 30.3702H23.0402C22.6889 30.3702 22.3936 30.1291 22.3242 29.7886L21.9081 27.6989L18.2322 26.193L16.4423 27.3783C16.1493 27.5729 15.7689 27.5353 15.5206 27.2898L12.7508 24.5522C12.5025 24.3068 12.4644 23.9308 12.6613 23.6412L13.8605 21.8721L12.3369 18.2389L10.2226 17.8276C9.8781 17.7613 9.63426 17.4671 9.63426 17.12V13.248C9.63426 12.9008 9.87813 12.6089 10.2226 12.5426L12.3369 12.1313L13.8605 8.49805L12.6613 6.729C12.4644 6.43932 12.5025 6.06338 12.7508 5.81792L15.5206 3.08033C15.7689 2.83488 16.1493 2.79728 16.4423 2.99188L18.2322 4.17717L21.9081 2.67124L22.3242 0.581552C22.3914 0.24101 22.6867 0 23.0402 0H26.9577C27.3089 0 27.6043 0.241033 27.6736 0.581552L28.0898 2.67124L31.7657 4.17717L33.5555 2.99188C33.8486 2.79728 34.229 2.83488 34.4773 3.08033L37.2471 5.81792C37.4954 6.06338 37.5334 6.43933 37.3366 6.729L36.1373 8.49805L37.661 12.1313L39.7752 12.5426C40.1198 12.6089 40.3636 12.9008 40.3636 13.248V17.12C40.3636 17.4671 40.1197 17.759 39.7752 17.8276L37.661 18.2389L36.1373 21.8721L37.3366 23.6412C37.5334 23.9308 37.4954 24.3068 37.2471 24.5522L34.4773 27.2898C34.229 27.5353 33.8486 27.5729 33.5555 27.3783L31.7657 26.193ZM33.777 15.1875C33.777 10.3978 29.8483 6.51262 25.0002 6.51262C20.1521 6.51262 16.2233 10.3957 16.2233 15.1875C16.2233 19.9793 20.1521 23.8624 25.0002 23.8624C29.8483 23.8624 33.777 19.9793 33.777 15.1875ZM25.0002 14.6501C19.955 14.6501 19.2257 16.5076 18.4874 18.3784C19.6486 20.7799 22.1275 22.4384 25.0002 22.4384C27.8728 22.4384 30.3518 20.7799 31.5129 18.3784C30.7746 16.5076 30.0452 14.6501 25.0002 14.6501ZM25.0002 14.0465C26.6357 14.0465 27.9691 12.7285 27.9691 11.112C27.9691 9.49554 26.6357 8.17761 25.0002 8.17761C23.3647 8.17761 22.0313 9.49554 22.0313 11.112C22.0313 12.7285 23.3647 14.0465 25.0002 14.0465ZM11.8315 26.3704C11.2073 25.3643 9.8 24.2188 8.29429 25.3045C7.69245 25.7136 7.48213 26.4943 7.52916 27.1775C7.67458 29.3026 9.7508 32.4095 10.9321 34.1739C11.1312 34.4702 11.3035 34.729 11.4691 34.9877C11.6726 35.3083 11.5742 35.7329 11.2476 35.9319C10.9231 36.1332 10.4936 36.0359 10.2922 35.713C10.1759 35.5295 9.98794 35.2486 9.77315 34.928C8.50909 33.0374 6.32548 29.7734 6.1733 27.1708C6.11737 26.2067 6.39032 25.2448 7.04583 24.5614C6.38808 22.4408 5.5088 18.717 4.97408 15.5633C4.05006 10.1257 1.41455 9.62381 0.0564967 11.4325C-0.0419477 12.149 -0.00391134 13.7058 0.110192 15.0215C0.747835 20.5277 1.38548 26.0315 2.02306 31.5379C2.43473 34.9655 3.04554 35.8412 4.54672 37.8556C6.65204 40.6839 10.6454 45.0382 11.024 49.8342C11.9905 50.1725 18.1856 50.0642 20.7092 48.8303C20.8926 42.8976 20.557 39.4302 17.8476 34.9168C15.6439 32.0265 13.7243 29.4172 11.8338 26.3698L11.8315 26.3704Z" fill="#5B6BFA"/>
</svg>
