<svg width="50" height="50" viewBox="0 0 50 50" fill="none" xmlns="http://www.w3.org/2000/svg">
<path d="M46.6028 31.6533H38.1123C37.6815 31.6533 37.282 31.4858 36.9762 31.1733L35.3624 29.5595C34.7129 28.921 33.8647 28.5706 32.9697 28.5706H26.6037C24.7333 28.5706 23.211 30.093 23.211 31.9635V46.6069C23.211 48.4775 24.7333 49.9999 26.6037 49.9999H46.6028C48.4732 49.9999 49.9955 48.4775 49.9955 46.6069V35.0442C49.9955 33.1736 48.4732 31.6512 46.6028 31.6512V31.6533ZM32.7709 42.8748C33.1191 43.2231 33.1191 43.7878 32.7709 44.1382C32.5968 44.3124 32.3691 44.3994 32.1392 44.3994C31.9115 44.3994 31.6816 44.3124 31.5075 44.1382L28.829 41.4596C28.4808 41.1113 28.4808 40.5466 28.829 40.1962L31.5075 37.5175C31.8557 37.1693 32.4204 37.1693 32.7708 37.5175C33.119 37.8657 33.119 38.4305 32.7708 38.7809L30.724 40.8278L32.7709 42.8748ZM38.342 38.4305L36.5564 43.7878C36.4314 44.1628 36.0832 44.3972 35.7104 44.3972C35.6167 44.3972 35.5229 44.3816 35.427 44.3503C34.9605 44.1941 34.706 43.6896 34.8623 43.2208L36.6479 37.8635C36.8041 37.3969 37.3063 37.1425 37.7773 37.2987C38.2438 37.455 38.4983 37.9594 38.342 38.4283L38.342 38.4305ZM44.3772 41.4596L41.6987 44.1383C41.5246 44.3124 41.297 44.3995 41.067 44.3995C40.8394 44.3995 40.6095 44.3124 40.4353 44.1383C40.0871 43.7901 40.0871 43.2253 40.4353 42.8749L42.4821 40.8279L40.4353 38.781C40.0871 38.4328 40.0871 37.868 40.4353 37.5176C40.7836 37.1694 41.3483 37.1694 41.6987 37.5176L44.3771 40.1963C44.7253 40.5445 44.7254 41.1092 44.3772 41.4596Z" fill="#5B6BFA"/>
<path d="M32.9697 26.7869C34.3357 26.7869 35.6303 27.3227 36.6124 28.287L38.1927 29.8674H38.4069C38.9605 28.3495 39.2819 26.7155 39.2819 25.0012C39.2819 17.126 32.8713 10.7149 24.9968 10.7149C17.1223 10.7149 10.7118 17.126 10.7118 25.0012C10.7118 31.6443 15.2741 37.225 21.4256 38.8142V31.966C21.4256 29.1087 23.7469 26.7872 26.6039 26.7872L32.9697 26.7869Z" fill="#5B6BFA"/>
<path d="M48.2101 21.4295H46.121C45.5875 18.2486 44.3309 15.2196 42.4605 12.5875L43.9358 11.1098C44.6322 10.4133 44.6322 9.27937 43.9358 8.58512L41.4114 6.06045C40.7149 5.36397 39.5811 5.36397 38.8869 6.06045L37.4116 7.53594C34.78 5.66312 31.7511 4.40856 28.5703 3.87512V1.78578C28.5703 0.801344 27.769 0 26.7846 0H23.2134C22.229 0 21.4277 0.801344 21.4277 1.78578V3.87512C18.2471 4.40862 15.2183 5.66535 12.5864 7.53594L11.1111 6.06045C10.774 5.72339 10.3254 5.53588 9.85 5.53588H9.84776C9.37011 5.53588 8.92369 5.72116 8.58445 6.05822L6.06 8.58288C5.36358 9.27937 5.36358 10.4133 6.06 11.1075L7.53759 12.5853C5.66493 15.2171 4.41048 18.2462 3.87479 21.4273H1.78563C0.801276 21.4273 0 22.2286 0 23.2131V26.7846C0 27.7691 0.801276 28.5704 1.78563 28.5704H3.87479C4.40824 31.7513 5.66488 34.7804 7.53759 37.4125L6.06 38.8902C5.36358 39.5867 5.36358 40.7206 6.06 41.4148L8.58445 43.9395C8.92149 44.2766 9.37013 44.4618 9.84776 44.4618H9.85C10.3277 44.4618 10.7741 44.2743 11.1111 43.9395L12.5887 42.464C15.2203 44.3368 18.2491 45.5914 21.43 46.1248V40.6581C14.2852 39.0286 8.93055 32.6333 8.93055 24.9993C8.93055 16.1372 16.1399 8.92724 25.0012 8.92724C33.8625 8.92724 41.0719 16.1372 41.0719 24.9993C41.0719 26.6958 40.804 28.3297 40.3152 29.8655H45.8641C45.9645 29.4369 46.0538 29.0061 46.1252 28.5708H48.2144C49.1987 28.5708 50 27.7695 50 26.785V23.2135C50 22.229 49.1987 21.4277 48.2144 21.4277L48.2101 21.4295Z" fill="#5B6BFA"/>
</svg>
