<svg width="8" height="15" viewBox="0 0 8 15" fill="none" xmlns="http://www.w3.org/2000/svg">
<path d="M6.85714 3.07143C6.85714 2.75584 7.11298 2.5 7.42857 2.5C7.74416 2.5 8 2.75584 8 3.07143V11.9286C8 12.2442 7.74416 12.5 7.42857 12.5C7.11298 12.5 6.85714 12.2442 6.85714 11.9286V3.07143Z" fill="#5B6BFA"/>
<path d="M3.42857 1.07143C3.42857 0.755837 3.68441 0.5 4 0.5C4.31559 0.5 4.57143 0.755837 4.57143 1.07143V13.9286C4.57143 14.2442 4.31559 14.5 4 14.5C3.68441 14.5 3.42857 14.2442 3.42857 13.9286V1.07143Z" fill="#5B6BFA"/>
<path d="M0 3.07143C0 2.75584 0.255837 2.5 0.571429 2.5C0.88702 2.5 1.14286 2.75584 1.14286 3.07143V11.9286C1.14286 12.2442 0.88702 12.5 0.571429 12.5C0.255837 12.5 0 12.2442 0 11.9286V3.07143Z" fill="#5B6BFA"/>
</svg>
