<svg width="50" height="50" viewBox="0 0 50 50" fill="none" xmlns="http://www.w3.org/2000/svg">
<path d="M41.6696 17.8568C41.523 17.7017 41.3765 17.7017 41.23 17.7017V17.2366C41.23 7.7635 33.8908 4.69802e-07 24.9403 4.69802e-07C15.9855 -0.00218317 8.64848 7.60808 8.64848 17.0795V17.5446C8.50196 17.5446 8.35542 17.6997 8.20889 17.6997C0.430187 22.5127 -2.35785 33.0735 2.19061 41.3043C4.39271 45.3422 7.91355 48.1376 12.1714 49.3798C13.6388 49.8449 14.9596 50 16.427 50C19.2152 50 22.0036 49.2226 24.6453 47.6699C24.7918 47.5148 24.9384 47.5148 25.0849 47.3598C25.2314 47.5148 25.3779 47.5148 25.5245 47.6699C28.0197 49.2225 30.8078 50 33.7428 50C35.2101 50 36.5309 49.845 37.9984 49.3798C42.2539 48.1372 45.7771 45.342 47.9792 41.3043C52.2368 33.2311 49.5951 22.6702 41.6703 17.8573L41.6696 17.8568ZM24.9382 2.94807C32.1283 2.94807 37.8534 8.84882 38.293 16.3043C33.7443 14.7516 28.9007 15.5269 24.9382 18.167C20.9757 15.5268 16.1319 14.9067 11.5834 16.3043C12.023 8.84882 17.748 2.94807 24.9382 2.94807ZM24.9382 22.0496C26.1125 23.1371 27.1403 24.3797 27.8729 25.7773C28.6076 27.175 29.1938 28.8827 29.4868 30.4353C28.0195 31.0555 26.5521 31.3678 24.7896 31.3678C23.0292 31.3678 21.5618 31.0577 20.0924 30.4353C20.3854 28.8827 20.8271 27.175 21.7063 25.7773C22.7361 24.2225 23.7638 22.9821 24.9382 22.0496ZM12.9043 46.5846C9.3813 45.6521 6.59327 43.3242 4.68597 39.9067C1.16302 33.3838 3.07206 24.998 8.94157 20.96C9.96934 25.9303 13.0506 29.9657 17.1598 32.2958C17.1598 34.0036 17.3064 35.7113 17.746 37.2661C18.4807 40.5265 20.2412 43.3217 22.4432 45.497C19.362 47.0518 16.1324 47.517 12.9043 46.5846ZM45.1904 39.909C43.43 43.1693 40.4932 45.4994 36.9721 46.5868C33.7443 47.5193 30.3679 47.0519 27.433 45.4993C29.6351 43.3242 31.249 40.529 32.1302 37.2684C32.5698 35.5607 32.7164 34.008 32.7164 32.2981C36.8254 29.968 39.7601 25.93 40.9346 20.9623C46.806 25.1552 48.7135 33.386 45.1904 39.909Z" fill="#5B6BFA"/>
</svg>
